SplineFontDB: 3.0
FontName: Catastrophe
FullName: Catastrophe
FamilyName: Catastrophe
Weight: Regular
Copyright: Copyright (c) 2016, kelvin,,,
UComments: "2016-3-31: Created with FontForge (http://fontforge.org)"
Version: 001.000
ItalicAngle: 0
UnderlinePosition: -100
UnderlineWidth: 50
Ascent: 800
Descent: 200
InvalidEm: 0
LayerCount: 2
Layer: 0 0 "Back" 1
Layer: 1 0 "Fore" 0
XUID: [1021 629 -1283197947 14224290]
StyleMap: 0x0000
FSType: 0
OS2Version: 0
OS2_WeightWidthSlopeOnly: 0
OS2_UseTypoMetrics: 1
CreationTime: 1459445766
ModificationTime: 1459637290
OS2TypoAscent: 0
OS2TypoAOffset: 1
OS2TypoDescent: 0
OS2TypoDOffset: 1
OS2TypoLinegap: 90
OS2WinAscent: 0
OS2WinAOffset: 1
OS2WinDescent: 0
OS2WinDOffset: 1
HheadAscent: 0
HheadAOffset: 1
HheadDescent: 0
HheadDOffset: 1
OS2Vendor: 'PfEd'
MarkAttachClasses: 1
DEI: 91125
Encoding: ISO8859-1
UnicodeInterp: none
NameList: AGL For New Fonts
DisplaySize: -128
AntiAlias: 1
FitToEm: 0
WinInfo: 78 13 6
BeginPrivate: 0
EndPrivate
Grid
-1000 650 m 0
 2000 650 l 1024
-1000 -210 m 0
 2000 -210 l 1024
-1000 680 m 0
 2000 680 l 1024
-1000 450 m 0
 2000 450 l 1024
EndSplineSet
BeginChars: 256 30

StartChar: n
Encoding: 110 110 0
Width: 590
VWidth: 0
Flags: HMW
LayerCount: 2
Fore
SplineSet
495 115 m 25
 510 45 l 25
 575 20 l 25
 575 0 l 25
 340 0 l 25
 340 20 l 25
 395 45 l 25
 410 115 l 25
 410 260 l 2
 410 357 378 387 307 387 c 3
 250 387 211 353 185 301 c 1
 180 336 l 1
 204 404 254 460 349 460 c 3
 447 460 495 417 495 270 c 2
 495 115 l 25
30 445 m 1
 195 455 l 25
 180 336 l 1
 185 301 l 1
 185 115 l 1
 200 45 l 25
 255 20 l 25
 255 0 l 25
 20 0 l 25
 20 20 l 25
 85 45 l 25
 100 115 l 25
 100 330 l 25
 85 400 l 1
 30 425 l 25
 30 445 l 1
EndSplineSet
Validated: 5
EndChar

StartChar: e
Encoding: 101 101 1
Width: 451
VWidth: 0
Flags: HMW
LayerCount: 2
Back
SplineSet
243 -10 m 3
 90 -10 35 83 35 220 c 3
 35 357 100 460 237 460 c 3
 390 460 445 367 445 230 c 3
 445 93 380 -10 243 -10 c 3
EndSplineSet
Fore
SplineSet
397 91 m 1
 411 78 l 1
 372 21 319 -10 243 -10 c 3
 106 -10 40 83 40 220 c 3
 40 357 110 460 237 460 c 3
 351 460 405 389 405 287 c 1
 404 261 l 1
 134 261 l 1
 134 293 l 1
 242 293 l 1
 312 303 l 1
 312 374 298 417 230 417 c 3
 161 417 135 343 135 279 c 3
 135 129 182 54 276 54 c 3
 314 54 369 65 397 91 c 1
EndSplineSet
Validated: 5
EndChar

StartChar: o
Encoding: 111 111 3
Width: 520
VWidth: 0
Flags: HMW
LayerCount: 2
Fore
SplineSet
250 415 m 3
 171 415 140 343 140 232 c 3
 140 111 178 35 270 35 c 3
 349 35 380 107 380 218 c 3
 380 339 342 415 250 415 c 3
263 -10 m 3
 115 -10 40 83 40 220 c 3
 40 357 125 460 257 460 c 3
 405 460 480 367 480 230 c 3
 480 93 395 -10 263 -10 c 3
EndSplineSet
Validated: 1
EndChar

StartChar: p
Encoding: 112 112 4
Width: 525
VWidth: 0
Flags: HMW
LayerCount: 2
Fore
SplineSet
322 460 m 3
 420 460 485 384 485 245 c 3
 485 108 404 -5 263 -5 c 3
 218 -5 197 0 170 10 c 9
 170 55 l 17
 193 45 218 40 255 40 c 3
 333 40 395 83 395 223 c 3
 395 335 351 387 280 387 c 3
 233.989257812 387 196 353 170 301 c 1
 165 336 l 1
 189 404 234.977014531 460 322 460 c 3
180 455 m 25
 165 336 l 1
 170 301 l 1
 170 -95 l 5
 185 -165 l 5
 255 -190 l 29
 255 -210 l 29
 15 -210 l 29
 15 -190 l 29
 70 -165 l 5
 85 -95 l 29
 85 330 l 1
 70 400 l 1
 15 425 l 25
 15 445 l 1
 180 455 l 25
EndSplineSet
Validated: 5
EndChar

StartChar: i
Encoding: 105 105 6
Width: 275
VWidth: 0
Flags: HMW
LayerCount: 2
Fore
SplineSet
70 620 m 3
 70 655 95 680 130 680 c 3
 165 680 190 655 190 620 c 3
 190 585 165 560 130 560 c 3
 95 560 70 585 70 620 c 3
195 455 m 29
 185 335 l 5
 185 115 l 5
 200 45 l 29
 260 20 l 29
 260 0 l 29
 20 0 l 29
 20 20 l 29
 85 45 l 29
 100 115 l 29
 100 330 l 29
 85 400 l 5
 30 425 l 29
 30 445 l 5
 195 455 l 29
EndSplineSet
Validated: 1
EndChar

StartChar: d
Encoding: 100 100 7
Width: 535
VWidth: 0
Flags: HMW
LayerCount: 2
Fore
SplineSet
130 227 m 3
 130 115 179 58 250 58 c 3
 307 58 334 86 360 119 c 1
 365 84 l 1
 341 36 303 -10 208 -10 c 3
 110 -10 40 66 40 205 c 3
 40 342 116 455 252 455 c 3
 302 455 333 445 360 430 c 9
 360 380 l 17
 337 399 307 410 270 410 c 3
 192 410 130 367 130 227 c 3
445 560 m 9
 445 130 l 5
 460 60 l 5
 525 45 l 29
 525 25 l 5
 350 -10 l 29
 365 84 l 5
 360 119 l 1
 360 555 l 9
 345 625 l 1
 290 640 l 25
 290 660 l 1
 455 680 l 1
 445 560 l 9
EndSplineSet
Validated: 5
EndChar

StartChar: t
Encoding: 116 116 8
Width: 360
VWidth: 0
Flags: HMW
LayerCount: 2
Fore
SplineSet
175 550 m 1
 175 450 l 1
 318 450 l 1
 318 409 l 1
 175 409 l 1
 175 173 l 2
 175 87 192 57 235 57 c 3
 262 57 297 64 311 73 c 1
 325 60 l 1
 306 25 251 -10 195 -10 c 3
 108 -10 90 46 90 133 c 2
 90 409 l 1
 10 409 l 1
 10 424 l 1
 160 550 l 1
 175 550 l 1
EndSplineSet
EndChar

StartChar: l
Encoding: 108 108 9
Width: 270
VWidth: 0
Flags: HMW
LayerCount: 2
Fore
SplineSet
95 555 m 29
 80 625 l 5
 15 640 l 29
 15 660 l 5
 190 680 l 5
 180 560 l 5
 180 115 l 1
 195 45 l 25
 255 20 l 25
 255 0 l 25
 15 0 l 25
 15 20 l 25
 80 45 l 25
 95 115 l 1
 95 555 l 29
EndSplineSet
Validated: 1
EndChar

StartChar: c
Encoding: 99 99 10
Width: 450
VWidth: 0
Flags: HMW
LayerCount: 2
Fore
SplineSet
329 402 m 5
 309 412 291 417 254 417 c 7
 164.977539062 417 135 330 135 258 c 7
 135 111.330078125 190.994140625 55 284 55 c 7
 322 55 373 67 401 93 c 5
 415 80 l 5
 376 23 319 -10 243 -10 c 3
 107 -10 40 83 40 220 c 7
 40 357 127 460 253 460 c 7
 329 460 373 439 390 425 c 5
 392 315 l 5
 352 310 l 5
 329 402 l 5
EndSplineSet
Validated: 1
EndChar

StartChar: a
Encoding: 97 97 11
Width: 465
VWidth: 0
Flags: HMW
LayerCount: 2
Fore
SplineSet
226 460 m 3
 320 460 380 419 380 290 c 2
 380 130 l 17
 395 60 l 1
 460 45 l 25
 460 25 l 1
 285 -10 l 25
 300 84 l 5
 295 160 l 9
 295 280 l 2
 295 358 263 392 200 392 c 3
 149 392 107 374 76 353 c 1
 64 368 l 1
 89 411 140 460 226 460 c 3
295 246 m 9
 295 214 l 17
 160 214 135 185.008789062 135 127 c 3
 135 78.98828125 158 56 202 56 c 3
 242.012695312 56 295 84 295 160 c 1
 300 84 l 1
 280 35 232.123046875 -10 167 -10 c 3
 83.9384765625 -10 40 35.7392578125 40 105 c 3
 40 189.758789062 102 246 295 246 c 9
EndSplineSet
Validated: 5
EndChar

StartChar: b
Encoding: 98 98 12
Width: 520
VWidth: 0
Flags: MW
LayerCount: 2
Fore
SplineSet
85 15 m 1
 85 555 l 1
 70 625 l 1
 15 640 l 25
 15 660 l 1
 180 680 l 1
 170 560 l 9
 165 351 l 1
 170 316 l 1
 170 110 l 1
 180 40 l 1
 195 35 206 32 224 32 c 3
 319.045898438 32 390 77 390 220 c 3
 390 335 356 387 280 387 c 3
 233.989257812 387 196 356 170 316 c 1
 165 351 l 1
 189 406 243.9765625 460 317 460 c 3
 420 460 480 384 480 242 c 3
 480 101.771484375 372 -10 223 -10 c 3
 165.44140625 -10 123 -1 85 15 c 1
EndSplineSet
Validated: 5
EndChar

StartChar: f
Encoding: 102 102 13
Width: 330
VWidth: 0
Flags: HMW
LayerCount: 2
Fore
SplineSet
95 455 m 5
 180 450 l 5
 300 450 l 5
 300 409 l 5
 0 409 l 5
 0 424 l 5
 95 455 l 5
262 610 m 3
 198.969726562 610 172 593.064453125 172 561 c 3
 172 526 180 493 180 450 c 3
 180 319 180 115 180 115 c 1
 195 45 l 25
 275 20 l 25
 275 0 l 25
 20 0 l 25
 20 20 l 25
 80 45 l 25
 95 115 l 1
 95 115 95 326 95 455 c 27
 95 566 155 690 282 690 c 3
 313 690 330 686 350 678 c 9
 326 594 l 17
 310 601 287 610 262 610 c 3
EndSplineSet
Validated: 5
EndChar

StartChar: v
Encoding: 118 118 14
Width: 485
VWidth: 0
Flags: HMW
LayerCount: 2
Fore
SplineSet
350 335 m 1
 360 405 l 25
 315 430 l 25
 315 450 l 25
 490 450 l 25
 490 430 l 25
 440 405 l 25
 400 335 l 1
 272 -10 l 21
 209 -10 l 5
 80 335 l 5
 45 405 l 5
 -5 430 l 29
 -5 450 l 29
 208 450 l 29
 208 430 l 29
 158 405 l 29
 173 335 l 29
 266 78 l 29
 350 335 l 1
EndSplineSet
Validated: 1
EndChar

StartChar: r
Encoding: 114 114 15
Width: 390
VWidth: 0
Flags: HMW
LayerCount: 2
Fore
SplineSet
100 115 m 9
 100 330 l 25
 85 400 l 1
 30 425 l 25
 30 445 l 1
 195 455 l 25
 180 336 l 1
 185 301 l 1
 185 115 l 1
 200 45 l 25
 280 20 l 25
 280 0 l 25
 25 0 l 25
 25 20 l 25
 85 45 l 25
 100 115 l 9
322 460 m 3
 347 460 354 458 370 455 c 9
 360 376 l 17
 345 379 330 381 311 381 c 3
 247 381 211 351 185 301 c 1
 180 336 l 1
 203 397 243 460 322 460 c 3
EndSplineSet
Validated: 5
EndChar

StartChar: s
Encoding: 115 115 16
Width: 400
VWidth: 0
Flags: HMW
LayerCount: 2
Fore
SplineSet
267 95 m 3
 267 140 238 162 163 186 c 0
 88.875 209.719726562 40 251.682617188 40 329 c 3
 40 407 96 460 196 460 c 3
 277 460 309 439 326 425 c 1
 326 318 l 1
 286 315 l 1
 267 389 l 1
 247 409 235 420 188 420 c 3
 145 420 114 393 114 354 c 3
 114 315 154.58984375 284.39453125 225 262 c 0
 303.041992188 237.177734375 345 197 345 132 c 3
 345 32 288 -11 170 -11 c 3
 112.991210938 -11 75 5 42 24 c 1
 40 136 l 1
 80 139 l 1
 101 65 l 1
 125 43 152 32 187 32 c 3
 231.008789062 32 267 49 267 95 c 3
EndSplineSet
Validated: 1
EndChar

StartChar: g
Encoding: 103 103 17
Width: 500
VWidth: 0
Flags: HMW
LayerCount: 2
Fore
SplineSet
406 526 m 29
 459 471 l 25
 356 420 l 1
 336 441 l 1
 406 526 l 29
141 172 m 9
 173 160 l 17
 158 143 148 128 148 113 c 3
 148 86 184.937527103 77 257 77 c 3
 388 77 465 55 465 -36 c 3
 465 -135 352 -220 225 -220 c 3
 123 -220 40 -191 40 -98 c 3
 40 -43 76 -5 131 23 c 9
 151 5 l 17
 116 -20 112 -36 112 -70 c 3
 112 -129 169 -165 251 -165 c 3
 330 -165 397 -138 397 -68 c 3
 397 -23 342 -5 240 -5 c 3
 115.963714986 -5 71 23 71 72 c 3
 71 99 106 144 141 172 c 9
233 419 m 3
 183 419 155 388 155 310 c 3
 155 225 188 191 247 191 c 3
 297 191 325 222 325 300 c 3
 325 386 292 419 233 419 c 3
242 150 m 3
 118 150 60 206 60 302 c 3
 60 398 126 460 238 460 c 3
 362 460 420 404 420 308 c 3
 420 212 354 150 242 150 c 3
EndSplineSet
Validated: 5
EndChar

StartChar: y
Encoding: 121 121 18
Width: 490
VWidth: 0
Flags: HMW
LayerCount: 2
Back
SplineSet
355 335 m 5
 365 405 l 29
 320 430 l 29
 320 450 l 29
 495 450 l 29
 495 430 l 29
 445 405 l 29
 405 335 l 5
 277 -10 l 21
 214 -10 l 5
 85 335 l 5
 50 405 l 5
 0 430 l 29
 0 450 l 29
 213 450 l 29
 213 430 l 29
 163 405 l 29
 178 335 l 29
 271 78 l 29
 355 335 l 5
EndSplineSet
Fore
SplineSet
91 -220 m 3
 60 -220 36 -216 16 -208 c 9
 40 -122 l 17
 64 -131 106 -143 137 -143 c 3
 178.030273438 -143 202.1328125 -119.793945312 221 -59 c 2
 230 -30 l 1
 86 335 l 1
 50 405 l 1
 0 430 l 25
 0 450 l 25
 213 450 l 25
 213 430 l 25
 163 405 l 25
 179 335 l 25
 273 83 l 1
 355 335 l 1
 365 405 l 25
 315 430 l 25
 315 450 l 25
 490 450 l 25
 490 430 l 25
 445 405 l 25
 405 335 l 1
 269 -35 l 18
 215.23828125 -182.34765625 166.026367188 -220 91 -220 c 3
EndSplineSet
Validated: 1
EndChar

StartChar: m
Encoding: 109 109 19
Width: 880
VWidth: 0
Flags: HMW
LayerCount: 2
Back
SplineSet
495 115 m 29
 510 45 l 29
 575 20 l 29
 575 0 l 29
 340 0 l 29
 340 20 l 29
 395 45 l 29
 410 115 l 29
 410 260 l 6
 410 357 378 387 307 387 c 7
 250 387 211 353 185 301 c 5
 180 336 l 5
 204 404 254 460 349 460 c 7
 447 460 495 417 495 270 c 6
 495 115 l 29
30 445 m 5
 195 455 l 29
 180 336 l 5
 185 301 l 5
 185 115 l 5
 200 45 l 29
 255 20 l 29
 255 0 l 29
 20 0 l 29
 20 20 l 29
 85 45 l 29
 100 115 l 29
 100 330 l 29
 85 400 l 5
 30 425 l 29
 30 445 l 5
EndSplineSet
Fore
SplineSet
785 115 m 25
 800 45 l 25
 865 20 l 25
 865 0 l 25
 630 0 l 25
 630 20 l 25
 685 45 l 25
 700 115 l 25
 700 260 l 2
 700 357 673 387 602 387 c 3
 545 387 511 353 484 299 c 1
 480 336 l 1
 504 404 549 460 644 460 c 3
 742 460 785 417 785 270 c 2
 785 115 l 25
485 115 m 25
 500 45 l 25
 555 20 l 25
 555 0 l 25
 330 0 l 25
 330 20 l 25
 385 45 l 25
 400 115 l 25
 400 260 l 2
 400 357 373 387 302 387 c 3
 245 387 211 353 185 301 c 1
 180 336 l 1
 204 404 249 460 344 460 c 3
 442 460 485 417 485 270 c 2
 485 115 l 25
30 445 m 1
 195 455 l 25
 180 336 l 1
 185 301 l 1
 185 115 l 1
 200 45 l 25
 255 20 l 25
 255 0 l 25
 20 0 l 25
 20 20 l 25
 85 45 l 25
 100 115 l 25
 100 330 l 25
 85 400 l 1
 30 425 l 25
 30 445 l 1
EndSplineSet
Validated: 5
EndChar

StartChar: I
Encoding: 73 73 20
Width: 310
VWidth: 0
Flags: HMW
LayerCount: 2
Fore
SplineSet
110 525 m 17
 95 605 l 25
 25 630 l 25
 25 650 l 25
 285 650 l 25
 285 630 l 25
 215 605 l 25
 200 525 l 17
 200 125 l 1
 215 45 l 25
 290 20 l 25
 290 0 l 25
 20 0 l 25
 20 20 l 25
 95 45 l 25
 110 125 l 1
 110 525 l 17
EndSplineSet
Validated: 1
EndChar

StartChar: u
Encoding: 117 117 21
Width: 580
VWidth: 0
Flags: HMW
LayerCount: 2
Back
SplineSet
95 335 m 29
 80 405 l 29
 15 430 l 29
 15 450 l 29
 250 450 l 29
 250 430 l 29
 195 405 l 29
 180 335 l 29
 180 190 l 6
 180 93 212 63 283 63 c 7
 340 63 379 97 405 149 c 5
 410 114 l 5
 386 46 336 -10 241 -10 c 7
 143 -10 95 33 95 180 c 6
 95 335 l 29
560 5 m 5
 395 -5 l 29
 410 114 l 5
 405 149 l 5
 405 335 l 5
 390 405 l 29
 335 430 l 29
 335 450 l 29
 570 450 l 29
 570 430 l 29
 505 405 l 29
 490 335 l 29
 490 120 l 29
 505 50 l 5
 560 25 l 29
 560 5 l 5
EndSplineSet
Fore
SplineSet
405 105 m 1
 400 140 l 1
 400 330 l 1
 385 400 l 1
 325 425 l 25
 325 445 l 1
 500 453 l 25
 485 335 l 1
 485 130 l 1
 500 60 l 1
 565 45 l 25
 565 25 l 1
 390 -10 l 1
 405 105 l 1
190 454 m 25
 180 335 l 9
 180 190 l 2
 180 93 209 63 280 63 c 3
 337 63 370 98 400 140 c 1
 405 105 l 1
 372 43 333 -10 238 -10 c 3
 140 -10 95 33 95 180 c 2
 95 330 l 25
 80 400 l 1
 15 426 l 25
 15 446 l 1
 190 454 l 25
EndSplineSet
Validated: 5
EndChar

StartChar: h
Encoding: 104 104 22
Width: 590
VWidth: 0
Flags: HMW
LayerCount: 2
Back
SplineSet
495 115 m 29
 510 45 l 29
 575 20 l 29
 575 0 l 29
 340 0 l 29
 340 20 l 29
 395 45 l 29
 410 115 l 29
 410 260 l 6
 410 357 378 387 307 387 c 7
 250 387 211 353 185 301 c 5
 180 336 l 5
 204 404 254 460 349 460 c 7
 447 460 495 417 495 270 c 6
 495 115 l 29
30 445 m 5
 195 455 l 29
 180 336 l 5
 185 301 l 5
 185 115 l 5
 200 45 l 29
 255 20 l 29
 255 0 l 29
 20 0 l 29
 20 20 l 29
 85 45 l 29
 100 115 l 29
 100 330 l 29
 85 400 l 5
 30 425 l 29
 30 445 l 5
EndSplineSet
Fore
SplineSet
349 460 m 3
 447 460 495 417 495 270 c 2
 495 115 l 25
 510 45 l 25
 575 20 l 25
 575 0 l 25
 340 0 l 25
 340 20 l 25
 395 45 l 25
 410 115 l 25
 410 260 l 2
 410 357 378 387 307 387 c 3
 255.989257812 387 211 356 185 316 c 1
 180 351 l 1
 204 406 262 460 349 460 c 3
185 316 m 1
 185 115 l 1
 200 45 l 25
 255 20 l 25
 255 0 l 25
 20 0 l 25
 20 20 l 25
 85 45 l 25
 100 115 l 1
 100 555 l 17
 85 625 l 1
 20 640 l 25
 20 660 l 1
 195 680 l 1
 185 560 l 1
 180 351 l 9
 185 316 l 1
EndSplineSet
Validated: 5
EndChar

StartChar: j
Encoding: 106 106 23
Width: 265
VWidth: 0
Flags: HMW
LayerCount: 2
Fore
SplineSet
70 620 m 3
 70 655 95 680 130 680 c 3
 165 680 190 655 190 620 c 3
 190 585 165 560 130 560 c 3
 95 560 70 585 70 620 c 3
185 80 m 2
 185 -66 144 -158 1 -220 c 9
 -10 -201 l 17
 79 -143 100 -79 100 88 c 2
 100 330 l 1
 85 400 l 1
 30 425 l 25
 30 445 l 1
 195 455 l 25
 185 335 l 1
 185 80 l 2
EndSplineSet
Validated: 1
EndChar

StartChar: k
Encoding: 107 107 24
Width: 520
VWidth: 0
Flags: HMW
LayerCount: 2
Back
SplineSet
95 555 m 29
 80 625 l 5
 15 640 l 29
 15 660 l 5
 190 680 l 5
 180 560 l 5
 180 115 l 5
 195 45 l 29
 255 20 l 29
 255 0 l 29
 15 0 l 29
 15 20 l 29
 80 45 l 29
 95 115 l 5
 95 555 l 29
EndSplineSet
Fore
SplineSet
365 0 m 25
 291 105 l 1
 207 210 l 25
 315 345 l 1
 355 405 l 25
 310 430 l 25
 310 450 l 25
 490 450 l 25
 490 430 l 25
 440 405 l 25
 370 345 l 1
 282 246 l 17
 402 105 l 1
 470 45 l 1
 520 20 l 25
 520 0 l 1
 365 0 l 25
95 555 m 25
 80 625 l 1
 15 640 l 25
 15 660 l 1
 190 680 l 1
 180 560 l 1
 180 115 l 1
 195 45 l 25
 255 20 l 25
 255 0 l 25
 15 0 l 25
 15 20 l 25
 80 45 l 25
 95 115 l 1
 95 555 l 25
EndSplineSet
Validated: 1
EndChar

StartChar: w
Encoding: 119 119 25
Width: 745
VWidth: 0
Flags: HMW
LayerCount: 2
Back
SplineSet
350 335 m 5
 360 405 l 29
 315 430 l 29
 315 450 l 29
 490 450 l 29
 490 430 l 29
 440 405 l 29
 400 335 l 5
 272 -10 l 21
 209 -10 l 5
 80 335 l 5
 45 405 l 5
 -5 430 l 29
 -5 450 l 29
 208 450 l 29
 208 430 l 29
 158 405 l 29
 173 335 l 29
 266 78 l 29
 350 335 l 5
EndSplineSet
Fore
SplineSet
409 420 m 1
 531 78 l 1
 609 335 l 1
 620 405 l 25
 575 430 l 25
 575 450 l 25
 750 450 l 25
 750 430 l 25
 700 405 l 25
 659 335 l 1
 537 -10 l 17
 474 -10 l 1
 366 297 l 1
 267 -10 l 1
 204 -10 l 1
 79 335 l 1
 45 405 l 1
 -5 430 l 25
 -5 450 l 25
 208 450 l 25
 208 430 l 25
 158 405 l 25
 172 335 l 25
 256 78 l 1
 368 420 l 1
 409 420 l 1
EndSplineSet
Validated: 1
EndChar

StartChar: x
Encoding: 120 120 26
Width: 470
VWidth: 0
Flags: HMW
LayerCount: 2
Back
SplineSet
350 335 m 5
 360 405 l 29
 315 430 l 29
 315 450 l 29
 490 450 l 29
 490 430 l 29
 440 405 l 29
 400 335 l 5
 272 -10 l 21
 209 -10 l 5
 80 335 l 5
 45 405 l 5
 -5 430 l 29
 -5 450 l 29
 208 450 l 29
 208 430 l 29
 158 405 l 29
 173 335 l 29
 266 78 l 29
 350 335 l 5
EndSplineSet
Fore
SplineSet
293 345 m 1
 320 405 l 25
 275 430 l 25
 275 450 l 29
 455 450 l 25
 455 430 l 25
 395 405 l 25
 341 345 l 9
 255 220 l 25
 219 235 l 25
 293 345 l 1
164 105 m 1
 135 45 l 25
 180 20 l 25
 180 0 l 25
 0 0 l 25
 0 20 l 25
 60 45 l 25
 116 105 l 9
 203 230 l 25
 239 215 l 25
 164 105 l 1
216 335 m 17
 263 256 l 1
 357 115 l 1
 415 45 l 1
 470 20 l 25
 470 0 l 25
 252 0 l 25
 252 20 l 25
 292 45 l 1
 259 115 l 17
 202 207 l 1
 118 335 l 1
 60 405 l 1
 5 430 l 25
 5 450 l 25
 223 450 l 25
 223 430 l 25
 183 405 l 25
 216 335 l 17
EndSplineSet
Validated: 5
EndChar

StartChar: q
Encoding: 113 113 27
Width: 520
VWidth: 0
Flags: HMW
LayerCount: 2
Back
SplineSet
130 227 m 7
 130 115 179 58 250 58 c 7
 307 58 334 86 360 119 c 5
 365 84 l 5
 341 36 303 -10 208 -10 c 7
 110 -10 40 66 40 205 c 7
 40 342 116 455 252 455 c 7
 302 455 333 445 360 430 c 13
 360 380 l 21
 337 399 307 410 270 410 c 7
 192 410 130 367 130 227 c 7
445 560 m 13
 445 130 l 5
 460 60 l 5
 525 45 l 29
 525 25 l 5
 350 -10 l 29
 365 84 l 5
 360 119 l 5
 360 555 l 13
 345 625 l 5
 290 640 l 29
 290 660 l 5
 455 680 l 5
 445 560 l 13
EndSplineSet
Fore
SplineSet
525 -210 m 17
 285 -210 l 25
 285 -190 l 25
 345 -165 l 1
 360 -95 l 25
 365 86 l 1
 360 121 l 1
 360 335 l 1
 350 405 l 1
 335 413 314 418 291 418 c 3
 201 418 130 373 130 230 c 3
 130 115 174 63 250 63 c 3
 296 63 334 83 360 121 c 1
 365 86 l 1
 341 33 286 -10 213 -10 c 3
 110 -10 40 66 40 208 c 3
 40 348 148 460 297 460 c 3
 355 460 407 451 445 430 c 1
 445 -95 l 1
 460 -165 l 1
 525 -190 l 1
 525 -210 l 17
EndSplineSet
Validated: 5
EndChar

StartChar: z
Encoding: 122 122 28
Width: 450
VWidth: 0
Flags: HMW
LayerCount: 2
Fore
SplineSet
60 455 m 1
 160 450 l 1
 400 450 l 1
 400 435 l 1
 156 32 l 1
 282 32 l 1
 352 47 l 1
 375 125 l 1
 410 121 l 1
 403 0 l 1
 40 0 l 1
 40 15 l 1
 290 418 l 1
 181 418 l 1
 111 403 l 1
 88 324 l 1
 53 328 l 1
 60 455 l 1
EndSplineSet
Validated: 1
EndChar

StartChar: hyphen
Encoding: 45 45 29
Width: 240
VWidth: 0
Flags: HMW
LayerCount: 2
Fore
SplineSet
10 265 m 1
 230 265 l 1
 230 210 l 1
 10 210 l 1
 10 265 l 1
EndSplineSet
Validated: 1
EndChar
